<svg xmlns="http://www.w3.org/2000/svg" width="48" height="48" fill="none"><path fill="color(display-p3 .7451 .7412 .7765)" fill-opacity="1" d="M6.35975 31.2957L21.7277 41.4945V32.3296L13.2172 26.6814L6.35975 31.2957ZM26.2723 32.3296V41.4945L41.6383 31.2957L34.7809 26.6814L26.2723 32.3296ZM17.2969 23.9364L24 28.3828L30.7012 23.9364L24 19.4282L17.2969 23.9364ZM4.54461 27.0421L9.12201 23.9615L4.54461 20.9232V27.0421ZM38.8761 23.9615L43.4554 27.0421V20.9232L38.8761 23.9615ZM6.37904 16.6909L13.2017 21.2184L21.7277 15.4814V6.50364L6.37904 16.6909ZM26.2723 15.4814L34.7963 21.2184L41.619 16.6909L26.2723 6.50364V15.4814ZM48 31.3092C47.9999 32.0703 47.6176 32.7807 46.9834 33.2016L25.2557 47.6211C24.4946 48.1263 23.5054 48.1263 22.7443 47.6211L1.01656 33.2016C0.382434 32.7807 0.000128251 32.0703 0 31.3092V16.6909C0.000128879 15.9298 0.382434 15.2194 1.01656 14.7985L22.7443 0.378939L23.0394 0.213042C23.7491 -0.118446 24.5897 -0.0630532 25.2557 0.378939L46.9834 14.7985C47.6176 15.2194 47.9999 15.9298 48 16.6909V31.3092Z"/></svg>