<svg xmlns="http://www.w3.org/2000/svg" width="48" height="48" fill="none"><path fill="color(display-p3 .7451 .7412 .7765)" fill-opacity="1" d="M42.743 2H5.24844C3.45234 2 2 3.41797 2 5.17109V42.8203C2 44.5734 3.45234 46 5.24844 46H42.743C44.5391 46 46 44.5734 46 42.8289V5.17109C46 3.41797 44.5391 2 42.743 2ZM15.0539 39.4945H8.52266V18.4914H15.0539V39.4945ZM11.7883 15.6297C9.69141 15.6297 7.99844 13.9367 7.99844 11.8484C7.99844 9.76016 9.69141 8.06719 11.7883 8.06719C13.8766 8.06719 15.5695 9.76016 15.5695 11.8484C15.5695 13.9281 13.8766 15.6297 11.7883 15.6297ZM39.4945 39.4945H32.9719V29.2852C32.9719 26.8531 32.9289 23.7164 29.5773 23.7164C26.1828 23.7164 25.6672 26.3719 25.6672 29.1133V39.4945H19.1531V18.4914H25.4094V21.3617H25.4953C26.3633 19.7117 28.4945 17.9672 31.6656 17.9672C38.2742 17.9672 39.4945 22.3156 39.4945 27.9703V39.4945V39.4945Z"/></svg>